# xmcd
#
# Track frame offsets: 
#        182
#        16222
#        35410
#        51707
#        71365
#        84632
#
# Disc length: 1343 seconds
#
# Revision: 0
# Processed by: cddbd v1.5.2PL0 Copyright (c) Steve Scherf et al.
# Submitted via: ExactAudioCopyFreeDBPlugin 1.0
#
DISCID=4a053d06
DTITLE=Various Artist - Merecury Nashville 1998 FAll Sampler
DYEAR=1998
DGENRE=Country
TTITLE0=Terri Clark - You're Easy On The Eyes
TTITLE1=Billy Ray Cyrus - Time For Letting Go
TTITLE2=Mark Wills - Don't Laugh At Me
TTITLE3=William Topley - Sycamore Street
TTITLE4=Sammy Kershaw - One Day Left To Live
TTITLE5=Shania Twain - Honey I'm Home
EXTD=
EXTT0=
EXTT1=
EXTT2=
EXTT3=
EXTT4=
EXTT5=
PLAYORDER=
